<?xml version="1.0" encoding="UTF-8"?>
<svg id="Layer_2" xmlns="http://www.w3.org/2000/svg" version="1.1" viewBox="0 0 2760.8 2376">
  <!-- Generator: Adobe Illustrator 29.8.3, SVG Export Plug-In . SVG Version: 2.1.1 Build 3)  -->
  <defs>
    <style>
      .st0 {
        fill: #fff;
      }
    </style>
  </defs>
  <path class="st0" d="M1780.6,683c-7-9.6,40-199.1,39.7-241-2.1-272.5-317.1-326.6-510.4-294.8-42.9,7-186.1,91.5-223.1,120.9-113.6,90-15,289.1,0,407.2-2.9,14.3-122-5.7-58.1,166.3,31.3,83.9,85,78.6,97.7,100.9,21.8,38.3,20.5,154.3,60.4,222.6,102.9,176.6,332.1,200.5,459.8,37.6,69.3-88.4,63.4-216.7,92-260.9,16.6-25.6,86.3-24.4,104.7-122.4,28.4-150.4-47.2-114.2-62.9-136.1l.2-.2Z"/>
  <path class="st0" d="M1300.7,2089.8l-147.8-719.7c-95.9,65.7-371.9,126.4-425,228.3-28.8,55.4-92.7,503.1-94.9,582.7-2.5,95.8-7,113.6,85.7,124.4,314,36.4,1086.8,35.2,1401.9,0,41.8-4.7,104.7-10.6,113.1-67.3,6.4-42.8-65-518.3-81.6-581.7-46.3-177.6-308.3-187.6-432.7-286l-166.7,729.7c-3.2-5.9-14.7-37.9-18.2-55.1-15-70-56.4-462.3-54.6-470.1,2.4-11.2,62.5-61.2,62.5-71.1l-103.1-104.5-107.5,98s52.3,57.2,62.1,77.2c2.1,26.6-62.4,441-72.7,478.3-.9,4-6.4,23.5-19,42.4l-1.6-5.6Z"/>
  <path class="st0" d="M1780.6,683c-7-9.6,40-199.1,39.7-241-2.1-272.5-317.1-326.6-510.4-294.8-42.9,7-186.1,91.5-223.1,120.9-113.6,90-15,289.1,0,407.2-2.9,14.3-122-5.7-58.1,166.3,31.3,83.9,85,78.6,97.7,100.9,21.8,38.3,20.5,154.3,60.4,222.6,102.9,176.6,332.1,200.5,459.8,37.6,69.3-88.4,63.4-216.7,92-260.9,16.6-25.6,86.3-24.4,104.7-122.4,28.4-150.4-47.2-114.2-62.9-136.1l.2-.2Z"/>
  <path class="st0" d="M1300.7,2089.8l-147.8-719.7c-95.9,65.7-371.9,126.4-425,228.3-28.8,55.4-92.7,503.1-94.9,582.7-2.5,95.8-7,113.6,85.7,124.4,314,36.4,1086.8,35.2,1401.9,0,41.8-4.7,104.7-10.6,113.1-67.3,6.4-42.8-65-518.3-81.6-581.7-46.3-177.6-308.3-187.6-432.7-286l-166.7,729.7c-3.2-5.9-14.7-37.9-18.2-55.1-15-70-56.4-462.3-54.6-470.1,2.4-11.2,62.5-61.2,62.5-71.1l-103.1-104.5-107.5,98s52.3,57.2,62.1,77.2c2.1,26.6-62.4,441-72.7,478.3-.9,4-6.4,23.5-19,42.4l-1.6-5.6Z"/>
  <path class="st0" d="M1914.1,1917.5h-158.3v-92.7h158.3v92.7ZM1760.2,1912.6h149.4v-82.9h-149.4v82.9Z"/>
  <path d="M1914.1,1917.5v-2h-156.3v-88.7h154.3v90.7h2v-2,2h2v-94.7h-162.3v96.7h162.3v-2h-2ZM1760.2,1912.6v2h151.4v-86.9h-153.4v86.9h2v-2h2v-80.9h145.4v78.9h-147.4v2h2-2Z"/>
</svg>